<svg width="14" height="13" viewBox="0 0 14 13" fill="none" xmlns="http://www.w3.org/2000/svg">
<path d="M12.22 3.4744C11.6811 2.55034 10.9499 1.81857 10.0253 1.28029C9.10123 0.742006 8.09278 0.472565 6.99995 0.472565C5.90711 0.472565 4.89866 0.742006 3.974 1.28029C3.04994 1.81857 2.31817 2.55034 1.77989 3.4744C1.24161 4.39846 0.972168 5.40751 0.972168 6.50034C0.972168 7.59318 1.24101 8.60223 1.77989 9.52629C2.31877 10.4509 3.04994 11.1821 3.9746 11.7204C4.89866 12.2587 5.90711 12.5281 6.99995 12.5281C8.09278 12.5281 9.10123 12.2587 10.0259 11.7204C10.95 11.1821 11.6817 10.4509 12.2206 9.52629C12.7589 8.60223 13.0277 7.59318 13.0277 6.50034C13.0277 5.40751 12.7589 4.39846 12.22 3.4744ZM6.99995 1.47318C8.2055 1.47318 9.27362 1.85895 10.2067 2.62991C9.65217 3.33757 8.82877 3.91985 7.73534 4.37796C7.13135 3.28513 6.47674 2.37252 5.76968 1.64135C6.18077 1.52923 6.58945 1.47318 6.99995 1.47318ZM3.08792 3.3659C3.54241 2.79507 4.08612 2.34961 4.72205 2.02773C5.45262 2.75167 6.12351 3.65523 6.73533 4.74023C5.52977 5.1019 4.2555 5.28273 2.91311 5.28273C2.56772 5.28273 2.30672 5.2749 2.1295 5.25862C2.31455 4.56723 2.63403 3.93673 3.08792 3.3659ZM1.97278 6.50034C1.97278 6.46779 1.97459 6.42801 1.97881 6.37979C1.98303 6.33157 1.98483 6.29178 1.98483 6.25923C2.13794 6.26767 2.37122 6.27129 2.68466 6.27129C4.29167 6.27129 5.78655 6.05007 7.16872 5.60823C7.28144 5.83307 7.39838 6.08623 7.51833 6.36773C6.72267 6.54435 5.90651 6.97413 5.07045 7.65768C4.2344 8.34123 3.62439 9.06034 3.23861 9.81562C2.39472 8.85901 1.97278 7.75412 1.97278 6.50034ZM6.99995 11.5275C5.85828 11.5275 4.83356 11.1737 3.92518 10.4672C4.28745 9.75173 4.84381 9.06757 5.59547 8.41718C6.34654 7.76618 7.09217 7.36051 7.83178 7.19957C8.29712 8.48529 8.61117 9.81502 8.77211 11.19C8.18501 11.4148 7.59429 11.5275 6.99995 11.5275ZM11.2676 9.14051C10.8662 9.78307 10.3478 10.3099 9.71245 10.7204C9.56778 9.46661 9.2905 8.24478 8.88122 7.0549C9.44301 7.01512 9.94512 6.99462 10.3882 6.99462C10.8698 6.99462 11.4044 7.01512 11.9909 7.0549C11.9102 7.80234 11.6691 8.49735 11.2676 9.14051ZM10.5202 6.12662C9.82095 6.12662 9.17417 6.15495 8.57922 6.21101C8.42612 5.8174 8.28989 5.4919 8.16933 5.23451C9.41467 4.68839 10.2983 4.02534 10.821 3.24534C11.5443 4.09767 11.9385 5.06995 12.0024 6.16279C11.5129 6.13868 11.0187 6.12662 10.5202 6.12662Z" fill="#080415"/>
</svg>
