<svg width="13" height="13" viewBox="0 0 13 13" fill="none" xmlns="http://www.w3.org/2000/svg">
<path d="M12.3057 3.96081C12.2779 3.33032 12.176 2.89687 12.0299 2.52127C11.8793 2.12259 11.6474 1.76565 11.3438 1.46892C11.047 1.16758 10.6877 0.933421 10.2937 0.785103C9.91589 0.639048 9.4847 0.537091 8.85422 0.509293C8.21902 0.47914 8.01737 0.472168 6.40634 0.472168C4.7953 0.472168 4.59365 0.47914 3.96081 0.506938C3.33032 0.534737 2.89687 0.636785 2.52136 0.782748C2.12259 0.933421 1.76565 1.16522 1.46892 1.46892C1.16758 1.76565 0.933511 2.12494 0.785103 2.51901C0.639048 2.89687 0.537091 3.32797 0.509293 3.95846C0.47914 4.59365 0.472168 4.7953 0.472168 6.40634C0.472168 8.01737 0.47914 8.21902 0.506938 8.85186C0.534737 9.48235 0.636785 9.91581 0.782839 10.2914C0.933511 10.6901 1.16758 11.047 1.46892 11.3438C1.76565 11.6451 2.12494 11.8793 2.51901 12.0276C2.89687 12.1736 3.32797 12.2756 3.95855 12.3034C4.5913 12.3313 4.79304 12.3382 6.40407 12.3382C8.01511 12.3382 8.21676 12.3313 8.8496 12.3034C9.48009 12.2756 9.91354 12.1736 10.289 12.0276C11.0865 11.7193 11.717 11.0888 12.0253 10.2914C12.1713 9.91354 12.2733 9.48235 12.3011 8.85186C12.3289 8.21902 12.3359 8.01737 12.3359 6.40634C12.3359 4.7953 12.3335 4.59365 12.3057 3.96081ZM11.2372 8.8055C11.2116 9.38501 11.1143 9.69795 11.0332 9.90657C10.8338 10.4235 10.4235 10.8338 9.90657 11.0332C9.69795 11.1143 9.38275 11.2116 8.8055 11.2371C8.17963 11.265 7.99193 11.2719 6.40869 11.2719C4.82545 11.2719 4.63539 11.265 4.01179 11.2371C3.43228 11.2116 3.11935 11.1143 2.91072 11.0332C2.65347 10.9381 2.41932 10.7874 2.22926 10.5904C2.03222 10.398 1.88155 10.1662 1.78648 9.90892C1.70534 9.7003 1.608 9.38501 1.58256 8.80786C1.55467 8.18199 1.54779 7.99419 1.54779 6.41096C1.54779 4.82772 1.55467 4.63766 1.58256 4.01414C1.608 3.43463 1.70534 3.1217 1.78648 2.91308C1.88155 2.65574 2.03222 2.42167 2.23161 2.23152C2.42393 2.03449 2.65574 1.88382 2.91308 1.78883C3.1217 1.7077 3.43699 1.61036 4.01414 1.58482C4.64001 1.55703 4.82781 1.55005 6.41095 1.55005C7.99654 1.55005 8.18425 1.55703 8.80786 1.58482C9.38737 1.61036 9.7003 1.7077 9.90892 1.78883C10.1662 1.88382 10.4003 2.03449 10.5904 2.23152C10.7874 2.42394 10.9381 2.65574 11.0332 2.91308C11.1143 3.1217 11.2116 3.4369 11.2372 4.01414C11.265 4.64001 11.2719 4.82772 11.2719 6.41096C11.2719 7.99419 11.265 8.17963 11.2372 8.8055Z" fill="#080415"/>
<path d="M6.40576 3.35837C4.72292 3.35837 3.35754 4.72365 3.35754 6.40658C3.35754 8.08951 4.72292 9.4548 6.40576 9.4548C8.08869 9.4548 9.45397 8.08951 9.45397 6.40658C9.45397 4.72365 8.08869 3.35837 6.40576 3.35837ZM6.40576 8.38388C5.31402 8.38388 4.42846 7.49841 4.42846 6.40658C4.42846 5.31475 5.31402 4.42928 6.40576 4.42928C7.49759 4.42928 8.38306 5.31475 8.38306 6.40658C8.38306 7.49841 7.49759 8.38388 6.40576 8.38388Z" fill="#080415"/>
<path d="M10.2863 3.23751C10.2863 3.63042 9.96776 3.949 9.57476 3.949C9.18186 3.949 8.86328 3.63042 8.86328 3.23751C8.86328 2.84452 9.18186 2.52603 9.57476 2.52603C9.96776 2.52603 10.2863 2.84452 10.2863 3.23751Z" fill="#080415"/>
</svg>
