<svg width="13" height="9" viewBox="0 0 13 9" fill="none" xmlns="http://www.w3.org/2000/svg">
<path d="M8.39611 1.13765H11.4903V1.88501H8.39611V1.13765ZM5.29572 4.09466C5.9797 3.76885 6.33797 3.27319 6.33797 2.5073C6.33797 0.992503 5.20576 0.625 3.8983 0.625H0.300049V8.22831H3.99911C5.38568 8.22831 6.68694 7.56433 6.68694 6.0202C6.68694 5.06592 6.23406 4.36026 5.29572 4.09466ZM1.9782 1.92207H3.55243C4.15886 1.92207 4.70325 2.09038 4.70325 2.79142C4.70325 3.43686 4.27984 3.69628 3.67961 3.69628H1.9782V1.92207ZM3.76957 6.93741H1.97665V4.84357H3.80524C4.5435 4.84357 5.01034 5.15085 5.01034 5.92909C5.01034 6.69498 4.45354 6.93741 3.76957 6.93741ZM12.7 5.55541C12.7 3.92636 11.7431 2.56906 10.0122 2.56906C8.32942 2.56906 7.1848 3.83062 7.1848 5.48438C7.1848 7.19837 8.26893 8.375 10.0122 8.375C11.3321 8.375 12.1867 7.7836 12.5977 6.52204H11.2592C11.1134 6.993 10.5209 7.24006 10.0603 7.24006C9.17004 7.24006 8.70475 6.72123 8.70475 5.83953H12.6892C12.6938 5.74843 12.7 5.6527 12.7 5.55541ZM8.70475 4.88526C8.75283 4.16106 9.23828 3.70863 9.96414 3.70863C10.7272 3.70863 11.1088 4.15489 11.1754 4.88526H8.70475Z" fill="#080415"/>
</svg>
